<?xml version="1.0" encoding="utf-8"?>
<!-- Generator: Adobe Illustrator 26.0.1, SVG Export Plug-In . SVG Version: 6.00 Build 0)  -->
<svg version="1.1" id="Layer_1" xmlns="http://www.w3.org/2000/svg" xmlns:xlink="http://www.w3.org/1999/xlink" x="0px" y="0px"
	 viewBox="0 0 24 24" style="enable-background:new 0 0 24 24;" xml:space="preserve">
<style type="text/css">
	.st0{fill:none;}
</style>
<path class="st0" d="M0,0h24v24H0V0z"/>
<path d="M21,10V6c0-1.1-0.9-2-2-2H5C3.9,4,3,4.9,3,6v4l0,4v4c0,1.1,0.9,2,2,2h14c1.1,0,2-0.9,2-2v-4V10z M15.6,16.8L12,14.5
	l-3.6,2.3l1.1-4.1L6.2,10l4.2-0.2L12,5.8l1.5,3.9l4.2,0.2l-3.3,2.7C14.5,12.7,15.6,16.8,15.6,16.8z"/>
</svg>
