<?xml version="1.0" encoding="utf-8"?>
<!-- Generator: Adobe Illustrator 25.4.1, SVG Export Plug-In . SVG Version: 6.00 Build 0)  -->
<svg version="1.1" id="Layer_1" xmlns="http://www.w3.org/2000/svg" xmlns:xlink="http://www.w3.org/1999/xlink" x="0px" y="0px"
	 viewBox="0 0 1000 385" style="enable-background:new 0 0 1000 385;" xml:space="preserve">
<style type="text/css">
	.st0{fill-rule:evenodd;clip-rule:evenodd;}
	.st1{fill:#FFFFFF;}
	.st2{fill:#FF1A1A;}
</style>
<g>
	<path class="st0" d="M477.6,368c-20.8,0-37.7-16.9-37.7-37.8V140.4c0-20.8,16.9-37.8,37.7-37.8c12.4,0,23.4,6,30.3,15.3
		c15.2-11.2,33.5-17.3,52.2-17.3c51.9,0,94.2,47,94.5,104.8c0,27.7-9.6,53.8-27.1,73.4c-17.8,20-41.7,31-67.1,31
		c-16,0-31.3-4.4-45-12.5v32.8C515.3,351,498.4,368,477.6,368z M549.2,168.2c-19,0-33.9,16.6-33.9,37.9c0,20.8,15.2,37.7,33.9,37.7
		c18.6,0,33.8-16.9,33.9-37.7C583.1,185.2,567.9,168.2,549.2,168.2z M77,367.9c-19.2,0-45.9-7.2-58.1-27.6
		c-6.9-11.7-7.1-25.4-0.6-36.7c6.4-11.2,18.5-18.2,31.6-18.2c3,0,5.9,0.4,8.9,1c4.4,1,8.3,2.9,11.8,4.5l1.3,0.6
		c3.1,1.5,6.4,3.1,8.2,3.1c0.2,0,0.3,0,0.5,0l0.3-0.1c1.3-0.2,3.9-3.3,6.4-6.2l0.1-0.1c3-3.5,4.9-7.2,6.2-10.4
		c-4.4-8.2-8.2-15.6-11.5-21.9l-1.8-3.5c-1.7-3.2-3.1-6-4.4-8.3c-1.8-3.3-3.3-6.2-4.7-8.8c-1.5-2.9-2.8-5.4-3.9-7.4l-0.1-0.2
		c-2.1-3.9-3.6-6.8-4.8-9c-2.4-4.6-3.4-6.5-5.3-9.9l-0.1-0.2c-5.9-11.2-12.1-21.9-19-33.7c-6.9-11.5-18.3-30.6-9.4-51.6
		c5.8-13.7,19.1-22.6,33.8-22.6c3.7,0,7.4,0.6,10.9,1.7c17.7,5.3,25.1,20.9,31,33.4l0.3,0.6c0.4,0.9,0.9,1.9,1.3,2.8
		c0.5,1,0.9,2,1.4,3c7.2,14.3,14.7,29.5,24.4,49.1c0.3-0.8,0.7-1.6,1-2.5c3.8-9.2,7.7-18.7,11.4-28c0.4-1.2,1.2-3.1,2.9-6.9
		c1.1-2.3,2.5-5.5,4-9.1c0.4-1.1,0.9-2.1,1.3-3.1c0.2-0.4,0.5-1.2,0.5-1.2c5.7-13.8,13.5-32.8,32.8-38.5c3.3-1,6.8-1.5,10.3-1.5
		c11.9,0,23.4,6,30.1,15.7c4,5.7,6.2,12.5,6.5,20.3l0,0.3c0.3,13.2-5.5,26-10.1,36.3l-0.3,0.8c-0.9,1.9-1.8,3.9-2.6,5.8
		c-0.2,0.5-0.4,0.9-0.5,1.2l-0.3,0.6c-1.4,3.2-5,11-10.2,22.3c-1.9,4.2-3.9,8.5-5.8,12.7l-0.2,0.4l-0.2,0.4c-1.1,2-2.1,4.2-3.1,6.5
		l-8.3,18.3l-0.3,0.5c-3.6,7.6-7.3,15.5-10.6,23.2c-0.5,1.1-1,2.2-1.5,3.2c-0.7,1.5-1.3,2.8-1.9,4.2l-0.2,0.5
		c-16.5,36.6-37,82.2-83.8,92.4C87.9,367.4,82.6,367.9,77,367.9z M314.6,309.8c-51.9,0-94.2-47-94.5-104.8
		c0-27.7,9.6-53.8,27.1-73.4c17.8-20,41.7-31,67.1-31c16.6,0,32.4,4.7,46.4,13.4c4.5-15.8,19-27.4,36.2-27.4
		c20.8,0,37.7,16.9,37.7,37.8V270c0,20.8-16.9,37.8-37.7,37.8c-12.4,0-23.4-6-30.3-15.3C351.6,303.7,333.4,309.8,314.6,309.8z
		 M325.7,166.8c-18.6,0-33.9,16.9-33.9,37.7c0,20.8,15.2,37.8,33.9,37.8c19,0,33.9-16.6,33.9-37.9
		C359.6,183.7,344.4,166.8,325.7,166.8z"/>
	<path class="st1" d="M397.1,99.1c13.9,0,25.2,11.2,25.2,25.3V270c0,14-11.2,25.3-25.2,25.3c-13.3,0-24.4-10.6-25-23.9v-0.6
		c-14.5,16.5-35,26.5-57.5,26.5c-45.1,0-81.8-41.5-82-92.4c0-51,36.6-91.9,81.8-91.9c22.6,0,42.9,10.3,57.5,26.5v-5.8v-9.3
		C371.9,110.3,383.1,99.1,397.1,99.1 M325.7,254.8c25.8,0,46.4-22.3,46.4-50.4c0-27.8-20.9-50.2-46.4-50.2
		c-25.6,0-46.3,22.4-46.4,50.2C279.2,232.4,300.1,254.8,325.7,254.8 M560.1,113.1c45.1,0,81.8,41.5,82,92.4
		c0,51-36.6,91.9-81.8,91.9c-22.6,0-42.9-10.3-57.5-26.5v52v7.3c0,14-11.2,25.3-25.2,25.3c-13.9,0-25.2-11.2-25.2-25.3V140.4
		c0-14,11.2-25.3,25.2-25.3c13.3,0,24.4,10.6,25,23.9v0.6C517.2,123.2,537.6,113.1,560.1,113.1 M549.2,256.2
		c25.6,0,46.2-22.4,46.4-50.2c0-28-20.9-50.4-46.4-50.4c-25.8,0-46.4,22.3-46.4,50.4C502.7,233.8,523.6,256.2,549.2,256.2
		 M196,113.1c7.8,0,15.4,3.9,19.9,10.3c2.9,4.1,4.1,8.9,4.3,13.6c0.2,10.5-4.9,21.8-9.2,31.4c-1.1,2.3-2.1,4.6-3,6.7
		c0,0.1-0.2,0.5-0.5,1.2c-1.2,2.7-4.5,10-10.1,22.2c-2,4.3-4,8.6-5.9,13c-1.2,2.3-2.3,4.7-3.4,7.1l-8.2,18.2
		c-3.7,7.9-7.5,16.1-11,24.1c-1.1,2.5-2.3,5-3.4,7.6c-15.7,35-34.4,76.6-75.1,85.5c-4,0.9-8.5,1.3-13.2,1.3
		c-18,0-38.5-6.8-47.3-21.5c-9.9-16.9,2.3-36,20.2-36c2,0,4,0.2,6.1,0.7c3.3,0.7,6.6,2.4,9.9,4c4.6,2.3,9.2,4.6,14.1,4.6
		c1,0,1.9-0.1,2.9-0.3c5.7-1,9.2-5.1,13.7-10.4c6.3-7.3,9-15,10.2-19.6c-0.1-0.2-0.2-0.4-0.3-0.7c-0.1-0.2-0.2-0.5-0.3-0.7
		c-5.1-9.5-9.6-18.2-13.3-25.3c-2.4-4.6-4.5-8.7-6.3-12c-3.7-6.9-6.4-12.2-8.6-16.3C71.8,210,70.8,208,68,202.9
		c-6.1-11.6-12.6-22.9-19.3-34.2c-7.3-12.2-14.7-25.9-8.6-40.3c3.9-9.3,12.8-14.9,22.3-14.9c2.4,0,4.8,0.4,7.3,1.1
		c12.6,3.8,18.3,15.9,23.6,27.2c0.9,2,1.9,4,2.8,6c8.4,16.8,16.8,33.6,25,50.4c0.7,1.7,1.8,3.9,3.2,6.7c1.2,2.5,2.6,5.3,4.1,8.5
		c0.8,1.6,1.5,3.2,2.2,4.5c0.9,1.8,1.6,3.3,2.1,4.5c3.8-9.6,7.7-19.2,11.6-28.7c3.9-9.5,7.8-19.1,11.6-28.7c0.1-0.5,1-2.6,2.4-5.6
		c1.2-2.6,2.7-5.9,4.3-9.7c0.5-1.3,1.1-2.6,1.7-4c5.1-12.4,11.2-27.5,24.9-31.5C191.5,113.5,193.7,113.1,196,113.1 M397.1,74.1
		c-13.4,0-26.1,5.2-35.5,14.7c-2.5,2.5-4.6,5.1-6.5,8C342.2,91,328.5,88,314.4,88c-14.8,0-29.1,3.2-42.5,9.6
		c-11.2,5.3-21.3,12.6-30.2,21.6c-1.4-3.6-3.2-7-5.3-10.1c-9.1-13.2-24.2-21-40.4-21c-4.7,0-9.4,0.7-13.9,2
		c-11.7,3.5-21.5,11-29.2,22.5c-5.3,7.9-8.8,16.4-11.6,23.2l0,0c-0.1,0.3-0.3,0.6-0.4,0.9c-0.4,1-0.9,2.1-1.4,3.4
		c-1.4,3.4-2.8,6.4-3.8,8.6c-1.6,3.5-2.6,5.8-3.3,7.7c-0.6,1.5-1.2,2.9-1.8,4.4c-4.3-8.6-8.2-16.5-12-24.1c-0.5-1-0.9-2-1.4-3
		c-0.4-0.9-0.8-1.8-1.2-2.5l-0.1-0.2l-0.1-0.2l-0.2-0.4c-6.2-13.2-15.6-33-38.7-40c-4.7-1.5-9.6-2.2-14.6-2.2
		c-19.8,0-37.6,11.9-45.4,30.2c-11.3,26.8,2.6,50.2,10.1,62.8c6.8,11.6,12.9,22.2,18.7,33.1l0.1,0.2l0.1,0.2
		c1.8,3.3,2.8,5.1,5.2,9.7c1.2,2.2,2.7,5.1,4.8,9l0.1,0.2l0.1,0.2c1.1,1.9,2.3,4.4,3.8,7.2c1.4,2.6,2.9,5.5,4.7,8.8l0,0.1l0,0.1
		c1.2,2.2,2.6,5,4.3,8.1c0.6,1.1,1.2,2.3,1.8,3.5c2.5,4.8,5.4,10.3,8.5,16.3c-0.5,0.7-1,1.4-1.6,2.1l-0.1,0.1l-0.1,0.1
		c0,0-0.1,0.1-0.1,0.1c-0.1,0-0.1-0.1-0.2-0.1l-0.4-0.2l-0.1,0l-0.1,0l-0.9-0.4c-3.8-1.9-8.6-4.2-14.5-5.5
		c-3.9-0.9-7.8-1.3-11.7-1.3c-17.5,0-33.8,9.4-42.4,24.5c-8.7,15.3-8.5,33.7,0.6,49.2l0,0.1l0,0.1C23,371.6,53.4,380.4,77,380.4
		c6.5,0,12.7-0.6,18.5-1.9l0,0c24-5.2,44.7-19.5,61.7-42.4c13.3-18,22.6-38.7,30.9-57l0.1-0.2l0.1-0.3l0.1-0.3
		c0.5-1.2,1.1-2.5,1.7-3.9c0.5-1.1,1-2.3,1.5-3.4l0,0l0,0c3.3-7.5,7-15.4,10.5-22.9l0.3-0.6l0.1-0.1l0.1-0.1l7.7-17
		c4.3,21.2,13.8,40.7,27.9,56.6c9.8,11,21.2,19.7,33.9,25.8c13.5,6.5,27.8,9.7,42.6,9.7c14.7,0,29-3.2,42.3-9.4
		c2.8-1.3,5.5-2.7,8.1-4.2c9,7.5,20.3,11.7,32,11.7c11.1,0,21.7-3.6,30.4-10.2v20.1c0,13.5,5.2,26.1,14.7,35.6
		c9.5,9.5,22.1,14.7,35.5,14.7s26.1-5.2,35.5-14.7c9.5-9.5,14.7-22.1,14.7-35.6v-7.3v-6c10.5,3.7,21.3,5.5,32.5,5.5
		c14.8,0,29.1-3.2,42.5-9.6c12.8-6.1,24.2-14.7,33.9-25.6c19.5-21.9,30.3-50.9,30.3-81.7v0l0,0c-0.1-30.7-10.9-59.7-30.4-81.7
		c-9.8-11-21.2-19.7-33.9-25.8c-13.5-6.5-27.8-9.7-42.6-9.7c-14.7,0-29,3.2-42.3,9.4c-2.8,1.3-5.5,2.7-8.1,4.2
		c-9-7.5-20.3-11.7-32-11.7c-13,0-25.3,4.9-34.6,13.8c-2.5-5.6-6-10.7-10.4-15.2C423.1,79.3,410.5,74.1,397.1,74.1L397.1,74.1z
		 M304.2,204.5c0.1-13.9,9.7-25.2,21.4-25.2c11.8,0,21.4,11.3,21.4,25.2c0,14.2-9.4,25.4-21.4,25.4
		C313.8,229.8,304.2,218.4,304.2,204.5L304.2,204.5z M549.2,231.2c-11.8,0-21.4-11.3-21.4-25.2c0-14.2,9.4-25.4,21.4-25.4
		c11.8,0,21.4,11.3,21.4,25.3C570.5,219.9,560.9,231.2,549.2,231.2L549.2,231.2z"/>
</g>
<g>
	<g>
		<path class="st1" d="M943.7,176c-1.5-1.8-3-2.2-3.4-4.9c-0.3-2.5,0.4-5.3,1.7-7.4c7.7-13.2,19.6-22.9,30.1-33.8
			c10-10.4,18.9-23.2,19-37.6c0.1-19.4-16.2-35.3-33.6-43.9c-11.5-5.6-24.3-9.3-37-7.9s-25.2,8.4-31,19.8
			c0.3-17.5-0.2-37.2-12.8-49.4c-12.9-12.4-33.1-12-50.8-9.9c-13.6,1.6-27.4,3.7-39.7,9.7s-23,16.6-26.1,30c-3,13.2,1.7,27,8.2,38.9
			c-16.2-12.6-40.9-9.4-57,3.4s-24.6,32.9-28.5,53.1c-1.4,7.3-2.3,14.9-0.5,22.1c1.8,7.2,6.6,14.1,13.7,16.4
			c-16.4,11.8-21.4,34.1-21.3,54.3c0.1,16.7,4.1,35.3,18,44.6c10.5,7,24.3,6.9,36.7,4.2c12.4-2.7,24.2-7.6,36.7-9.5
			c10.5-1.6,22.7-0.3,29.2,8.1c6.6,8.5,4.7,20.5,5.7,31.2c1.8,19,14.4,36.2,31.2,45.2c16.8,9,37.2,10.2,55.5,4.9
			c11.6-3.4,22.8-9.5,30.2-19c7.4-9.5,10.6-22.8,6.3-34.1c12.1,6.8,27.4,6.8,40.1,1.2s22.7-16.4,28.7-28.9c8.5-17.7,9-38.9,1.5-57
			c-7.9-19-24.7-34.4-44.6-40.1"/>
	</g>
</g>
<g>
	<g>
		<path class="st2" d="M776.4,239.7l12.7-3.7c0.3-0.1,0.7-0.2,1.3-0.4c3.5-1.1,6.4-3.5,8.1-6.7c1.7-3.1,2.1-6.7,1-10
			c0-0.1,0-0.2,0-0.2c-0.5-1.6-1.4-3.1-2.5-4.4c-1.6-1.7-3.4-3-5.6-3.9c-2.5-1.1-5.1-2-7.8-2.7l-14.5-3.9
			c-8.1-2.2-16.3-4.5-24.6-6.5c-5.3-1.4-9.9-2.7-13.7-3.5c-0.7-0.1-1.5-0.3-2.3-0.5c-4.7-1-8-1.4-10.8-1.2c-1.9,0-3.6,0.5-5.3,1.3
			c-1.8,0.8-3.3,2-4.5,3.5c-0.6,0.7-1.1,1.5-1.7,2.3c-0.5,0.8-0.9,1.7-1.3,2.5c-0.4,0.9-0.8,1.9-1.1,2.8c-2.2,7.5-2.9,15.3-2.4,23
			c0.5,7,1.3,16,5.8,21.7c1.1,1.5,2.5,2.8,4.1,3.7c3,1.7,6,1.7,9.1,1.7c4.6,0,8.9-1.4,13.3-2.6L776.4,239.7L776.4,239.7z"/>
	</g>
	<g>
		<path class="st2" d="M779.5,179.2l14.4,3.9c0.3,0.1,0.8,0.3,1.5,0.3c4.1,0.9,8.3,0.3,11.9-1.9c3.5-2.2,6.2-5.6,7.3-9.6
			c0-0.1,0.1-0.2,0.1-0.3c0.5-1.9,0.6-4,0.3-6c-0.4-2.6-1.5-5.1-2.8-7.3c-1.6-2.7-3.5-5.1-5.6-7.4l-11.3-12.7
			c-6.3-7.2-12.7-14.2-19.2-21.3c-4.2-4.6-7.7-8.5-10.9-11.8c-0.6-0.6-1.3-1.3-1.8-1.8c-3.9-3.9-6.8-6.2-9.5-7.7
			c-1.8-1-3.8-1.7-5.9-1.9c-2.2-0.2-4.3,0.1-6.4,0.8c-1,0.4-2.1,0.9-3,1.3c-0.9,0.5-1.9,1.1-2.8,1.7c-0.9,0.7-1.9,1.4-2.8,2.2
			c-6.7,6.3-12.4,13.7-16.7,21.9c-3.9,7.4-8.8,17-8.1,25.5c0.1,2.2,0.6,4.3,1.6,6.2c1.8,3.5,4.6,5.4,7.5,7.3c4.4,2.8,9.3,4,14.3,5.4
			L779.5,179.2L779.5,179.2z"/>
	</g>
	<g>
		<path class="st2" d="M945.4,73.1c-7-3.7-14.5-6.1-22.3-7.3c-1-0.2-2-0.2-3-0.2c-1,0-1.8,0-2.8,0.1s-1.9,0.3-2.7,0.6
			c-1.8,0.5-3.5,1.3-4.9,2.6c-1.3,1.1-2.4,2.5-3.2,4.2c-1.2,2.4-2.1,5.4-2.9,10c-0.1,0.7-0.3,1.4-0.4,2.1c-0.7,3.8-1.2,8.3-1.9,13.6
			c-1.1,8.1-2.1,16.1-3.1,24.3l-1.8,14.4c-0.3,2.6-0.4,5.3-0.3,8c0.1,2.2,0.6,4.4,1.6,6.5c0.8,1.5,1.9,2.9,3.1,4
			c0.1,0.1,0.1,0.1,0.2,0.1c2.7,2.3,6.2,3.4,9.7,3.2c3.5-0.2,6.9-1.9,9.2-4.5c0.4-0.4,0.6-0.8,0.8-0.9l35.5-42.1
			c2.8-3.3,5.7-6.6,7.4-10.7c1.1-2.7,2.2-5.3,1.8-8.7c-0.2-1.8-0.9-3.6-1.9-5.2C959.7,80.8,951.7,76.5,945.4,73.1z"/>
	</g>
	<g>
		<path class="st2" d="M859.1,150.5c4.1-4.7,4.1-11.9,4.4-17.7c1.2-19.4,2.5-38.9,3.5-58.3c0.4-7.3,1.2-14.7,0.8-22.1
			c-0.3-6.1-0.4-13.2-4.6-18.2c-7.3-8.9-23-8.1-33.7-6.7c-3.3,0.4-6.6,0.9-9.8,1.7c-3.3,0.7-6.5,1.6-9.6,2.4
			c-10.3,3.1-24.7,8.9-27.1,19.9c-1.4,6.2,1.9,12.6,4.4,18.2c3.1,6.9,7.3,13,11,19.5c10.1,17.1,20.4,34,30.6,51
			c3,5.1,6.4,11.5,12.3,14.2c0.4,0.2,0.8,0.3,1.2,0.4c2.7,0.9,5.5,1.1,8.3,0.5c0.2,0,0.3-0.1,0.5-0.1c2.6-0.6,4.8-1.9,6.6-3.7
			C858.5,151.2,858.8,150.9,859.1,150.5z"/>
	</g>
	<g>
		<path class="st2" d="M908.6,266.8c6.2,3.9,11.5,7.1,16,9.7c0.9,0.5,1.8,1,2.6,1.5c5.6,3.1,9.6,4.8,13.2,5.6
			c2.4,0.6,4.8,0.7,7.2,0.2c2.5-0.5,4.9-1.6,6.9-3c1.1-0.8,2-1.6,3-2.4c0.9-0.9,1.7-1.9,2.6-2.8c0.9-1,1.7-2.2,2.4-3.4
			c10-16.5,14.2-33.4,5.6-51.6c-4-8.4-10.8-15.6-19.3-19.3c-16.1-6.8-38.1-2.7-55.2-2.1c0,0-19.9,0.7-19.9,0.7
			c-1.2,0.3-2.5,0.1-3.7,0.2c-1.4,0.1-2.8,0.3-4.2,0.6c-3.2,0.6-6.8,1.4-9.6,3.1c-0.7,0.5-1.4,1-2,1.5c-1,0.9-1.9,1.8-2.7,2.8
			c-2.3,2.9-4.1,6.4-5.6,9.9c-0.4,0.9-0.7,2-1.1,2.8l-7.3,18.5c-4.2,10.4-8.3,20.8-12.2,31.3c-5.3,14.5-5.4,34.3,4.6,47
			c5.9,7.4,15.3,11.5,24.8,12.7c10.8,1.4,26.1,1.4,35.9-3.9c1.2-0.6,2.2-1.2,3.4-2c2.1-1.5,3.9-3.4,5.1-5.5c1.2-2.1,2-4.4,2.2-6.9
			c0.5-3.6,0.2-8-0.8-14.3c-0.2-0.9-0.4-2-0.5-3c-0.9-5.2-2.2-11.2-3.7-18.4c-1.4-6.9,3.1-9.4,5.6-10.5
			C904.3,264.4,908.6,266.8,908.6,266.8z"/>
	</g>
</g>
<ellipse class="st1" cx="325.7" cy="204.5" rx="46.4" ry="50.3"/>
<ellipse class="st1" cx="549.2" cy="206" rx="46.4" ry="50.3"/>
</svg>
