<?xml version="1.0" encoding="utf-8"?>
<!-- Generator: Adobe Illustrator 25.4.1, SVG Export Plug-In . SVG Version: 6.00 Build 0)  -->
<svg version="1.1" id="Layer_1" xmlns="http://www.w3.org/2000/svg" xmlns:xlink="http://www.w3.org/1999/xlink" x="0px" y="0px"
	 viewBox="0 0 200 225" style="enable-background:new 0 0 200 225;" xml:space="preserve">
<style type="text/css">
	.st0{fill:#FF1A1A;}
</style>
<path class="st0" d="M59.7,155.9l7.4-3.9c0.2-0.1,0.4-0.2,0.7-0.4c2-1.1,3.5-3,4.2-5.1c0.7-2.1,0.4-4.4-0.6-6.4c0,0,0-0.1-0.1-0.1
	c-0.5-0.9-1.2-1.7-2.1-2.4c-1.2-0.8-2.5-1.4-3.9-1.7c-1.7-0.4-3.4-0.6-5.1-0.8l-9.5-0.6c-5.3-0.4-10.7-0.7-16-1
	c-3.5-0.2-6.4-0.4-9-0.5c-0.5,0-1,0-1.4,0c-3.1,0-5.1,0.2-6.8,0.6c-1.1,0.3-2.2,0.8-3.1,1.5c-1,0.7-1.8,1.6-2.3,2.7
	c-0.3,0.5-0.5,1.1-0.8,1.6c-0.2,0.6-0.4,1.1-0.5,1.7c-0.2,0.6-0.3,1.2-0.3,1.9c-0.4,4.9,0.1,9.8,1.4,14.6c1.2,4.3,2.8,9.7,6.3,12.8
	c0.9,0.8,1.9,1.4,3,1.8c2.1,0.7,3.9,0.3,5.8,0c2.8-0.6,5.4-2,7.9-3.3L59.7,155.9L59.7,155.9z"/>
<path class="st0" d="M56.8,119.6l8.7,2.4c0.2,0,0.5,0.1,0.9,0.2c2.4,0.6,5,0.2,7.2-1.1c2.2-1.3,3.7-3.4,4.4-5.8c0-0.1,0-0.1,0-0.2
	c0.3-1.2,0.4-2.4,0.2-3.6c-0.3-1.6-0.9-3.1-1.7-4.4c-1-1.6-2.1-3.1-3.4-4.5L66.3,95c-3.8-4.3-7.7-8.6-11.6-12.9
	c-2.5-2.8-4.6-5.2-6.6-7.1c-0.4-0.4-0.8-0.8-1.1-1.1c-2.3-2.3-4.1-3.7-5.7-4.6c-1.1-0.6-2.3-1-3.5-1.1c-1.3-0.1-2.6,0.1-3.9,0.5
	c-0.6,0.2-1.2,0.5-1.8,0.8c-0.6,0.3-1.1,0.7-1.7,1c-0.6,0.4-1.2,0.8-1.7,1.3c-4.1,3.8-7.5,8.3-10.1,13.2c-2.4,4.5-5.3,10.2-4.9,15.4
	c0.1,1.3,0.4,2.6,1,3.8c1.1,2.1,2.8,3.2,4.5,4.3c2.6,1.7,5.6,2.4,8.6,3.2L56.8,119.6L56.8,119.6z"/>
<path class="st0" d="M164.2,52.2c-4.6-3.2-9.6-5.6-15-7.2c-0.7-0.2-1.4-0.3-2.1-0.4c-0.7-0.1-1.3-0.1-2-0.2c-0.7,0-1.3,0.1-2,0.1
	c-1.3,0.2-2.5,0.6-3.6,1.3c-1.1,0.7-1.9,1.6-2.6,2.6c-1.1,1.5-2,3.6-3,6.7c-0.1,0.5-0.3,1-0.5,1.5c-0.8,2.6-1.6,5.7-2.6,9.3
	c-1.5,5.6-3,11.2-4.4,16.8l-2.6,9.9c-0.5,1.8-0.8,3.7-1,5.5c-0.1,1.6,0,3.2,0.5,4.7c0.4,1.1,1,2.2,1.8,3.1c0,0,0.1,0.1,0.1,0.1
	c1.7,1.9,4,3,6.5,3.1c2.5,0.2,5-0.7,6.9-2.3c0.3-0.2,0.5-0.4,0.7-0.6l28.8-26.3c2.3-2.1,4.6-4.1,6.2-6.8c1.1-1.8,2-3.5,2-5.9
	c0-1.3-0.3-2.6-0.9-3.8C173.6,58.9,168.3,55.1,164.2,52.2z"/>
<path class="st0" d="M105.4,102.9c2.5-2.9,2.5-7.2,2.7-10.7c0.7-11.7,1.5-23.5,2.1-35.2c0.2-4.4,0.8-8.8,0.5-13.3
	c-0.2-3.7-0.3-7.9-2.8-11c-4.4-5.3-13.9-4.9-20.3-4.1c-2,0.3-3.9,0.6-5.9,1c-2,0.4-3.9,0.9-5.8,1.5c-6.2,1.9-14.9,5.3-16.3,12
	c-0.8,3.7,1.1,7.6,2.7,11c1.8,4.1,4.4,7.9,6.7,11.8C75,76.3,81.2,86.5,87.4,96.7c1.8,3.1,3.9,6.9,7.4,8.5c0.2,0.1,0.5,0.2,0.7,0.3
	c1.6,0.6,3.3,0.7,5,0.3c0.1,0,0.2,0,0.3-0.1c1.5-0.4,2.9-1.2,4-2.2C105.1,103.3,105.3,103.1,105.4,102.9z"/>
<path d="M189.1,202.7h1.1c0.6,0,1-0.1,1.3-0.4c0.3-0.3,0.5-0.7,0.5-1.1c0-0.5-0.2-0.9-0.5-1.1c-0.3-0.2-0.8-0.3-1.4-0.3h-1.1V202.7z
	 M193.7,201.1c0,0.6-0.2,1.1-0.5,1.5c-0.3,0.4-0.7,0.7-1.3,1l2.5,4.2h-1.8l-2.2-3.7h-1.4v3.7h-1.6v-9.4h2.7c1.2,0,2,0.2,2.6,0.7
	C193.4,199.4,193.7,200.1,193.7,201.1z M182.6,203c0-1.4,0.4-2.7,1.1-3.9c0.7-1.2,1.7-2.2,2.9-2.9c1.2-0.7,2.5-1.1,4-1.1
	c1.4,0,2.7,0.3,3.9,1.1s2.2,1.7,2.9,2.9c0.7,1.2,1.1,2.5,1.1,4c0,1.4-0.3,2.7-1,3.9c-0.7,1.2-1.6,2.2-2.9,2.9
	c-1.2,0.7-2.6,1.1-4,1.1c-1.5,0-2.8-0.4-4-1.1c-1.2-0.7-2.2-1.7-2.9-2.9C182.9,205.7,182.6,204.4,182.6,203z M183.7,203
	c0,1.2,0.3,2.3,0.9,3.4c0.6,1.1,1.4,1.9,2.5,2.5c1.1,0.6,2.2,0.9,3.4,0.9c1.2,0,2.4-0.3,3.4-0.9c1-0.6,1.9-1.4,2.5-2.5
	c0.6-1,0.9-2.2,0.9-3.4c0-1.2-0.3-2.4-0.9-3.4c-0.6-1-1.4-1.9-2.5-2.5c-1-0.6-2.2-0.9-3.4-0.9c-1.2,0-2.4,0.3-3.4,0.9
	c-1,0.6-1.9,1.4-2.5,2.5C184,200.6,183.7,201.8,183.7,203z"/>
<path class="st0" d="M136.9,176c3.5,2.6,6.5,4.9,9.1,6.7c0.5,0.3,1,0.7,1.5,1c3.2,2.2,5.5,3.4,7.6,4c1.4,0.5,2.9,0.7,4.3,0.5
	c1.5-0.2,3-0.7,4.3-1.4c0.7-0.4,1.3-0.8,1.9-1.3c0.6-0.5,1.2-1,1.7-1.6c0.6-0.6,1.1-1.2,1.6-1.9c2.9-4,5.3-8.3,7-12.9
	c2.1-5.5,3.6-11.2,4.1-17.1c0.1-0.8,0.1-1.7,0-2.5c-0.1-0.8-0.1-1.5-0.3-2.3c-0.2-0.8-0.4-1.5-0.6-2.3c-0.5-1.4-1.3-2.8-2.4-3.9
	c-1-1.1-2.3-1.9-3.6-2.4c-2-0.9-4.6-1.4-8.4-1.9c-0.5,0-1.2-0.1-1.8-0.2c-3.2-0.4-6.9-0.6-11.3-0.9c-6.7-0.5-13.5-0.9-20.2-1.3
	c0,0-12-0.7-12-0.7c-0.7,0.1-1.5-0.1-2.2-0.1c-0.9,0-1.7,0-2.6,0.1c-2,0.2-4.2,0.5-5.9,1.4c-0.4,0.2-0.9,0.5-1.3,0.8
	c-0.6,0.5-1.2,1-1.8,1.6c-1.6,1.6-2.8,3.6-3.9,5.6c-0.3,0.5-0.5,1.1-0.9,1.6l-5.4,10.7c-3.1,6-6.1,12-9,18.1
	c-1.9,3.9-3.6,7.3-4.9,10.2c-0.2,0.6-0.5,1.2-0.7,1.7c-1.5,3.5-2.3,6.1-2.6,8.2c-0.2,1.5-0.1,2.9,0.3,4.3c0.4,1.5,1.2,2.8,2.2,4
	c0.5,0.6,1.1,1.1,1.7,1.7c0.6,0.5,1.2,1,1.9,1.4c0.7,0.5,1.4,0.9,2.2,1.3c5.4,2.6,11,4.1,16.9,5c4.9,0.8,9.8,0.9,14.7,0.4
	c0.8-0.1,1.7-0.2,2.5-0.5c0.8-0.2,1.5-0.4,2.2-0.7c0.7-0.3,1.4-0.6,2.1-1c1.3-0.8,2.5-1.8,3.4-3c0.9-1.2,1.4-2.6,1.7-4
	c0.5-2.1,0.6-4.8,0.3-8.6c-0.1-0.5-0.1-1.2-0.1-1.8c-0.2-3.2-0.7-6.9-1.2-11.3c-0.5-4.2,2.4-5.4,3.9-6
	C134.4,174.4,136.9,176,136.9,176z"/>
</svg>
