<?xml version="1.0" encoding="utf-8"?>
<!-- Generator: Adobe Illustrator 25.4.1, SVG Export Plug-In . SVG Version: 6.00 Build 0)  -->
<svg version="1.1" id="Layer_1" xmlns="http://www.w3.org/2000/svg" xmlns:xlink="http://www.w3.org/1999/xlink" x="0px" y="0px"
	 viewBox="0 0 1000 385" style="enable-background:new 0 0 1000 385;" xml:space="preserve">
<style type="text/css">
	.st0{fill-rule:evenodd;clip-rule:evenodd;}
	.st1{fill:#FF1A1A;}
</style>
<path class="st0" d="M280.7,326.6c22.4,0,42.8-10,57.3-26.4v0.6c0.6,13.2,11.6,23.8,24.9,23.8c13.9,0,25.1-11.2,25.1-25.2V154.2
	c0-14-11.2-25.2-25.1-25.2c-13.9,0-25.1,11.2-25.1,25.2v9.3v5.8c-14.5-16.1-34.8-26.4-57.3-26.4c-45,0-81.5,40.8-81.5,91.6
	C199.2,285.2,235.7,326.6,280.7,326.6z M291.7,184c25.5,0,46.3,22.3,46.3,50c0,28-20.6,50.2-46.3,50.2c-25.5,0-46.3-22.3-46.3-50.2
	C245.5,206.3,266.2,184,291.7,184z M525.4,143c-22.4,0-42.8,10-57.3,26.4v-0.6c-0.6-13.2-11.6-23.8-24.9-23.8
	c-13.9,0-25.1,11.2-25.1,25.2v189.2c0,14,11.2,25.2,25.1,25.2c13.9,0,25.1-11.2,25.1-25.2v-7.3v-51.8c14.5,16.1,34.8,26.4,57.3,26.4
	c45,0,81.5-40.8,81.5-91.6C606.9,184.4,570.4,143,525.4,143z M514.5,285.6c-25.5,0-46.3-22.3-46.3-50c0-28,20.6-50.2,46.3-50.2
	c25.5,0,46.3,22.3,46.3,50.2C560.6,263.3,540,285.6,514.5,285.6z M161.4,248.3l-8.2,18.1c-3.7,7.9-7.5,16-11,24
	c-1.1,2.5-2.3,5-3.4,7.6c-15.7,34.9-34.3,76.4-74.9,85.2c-19.6,4.3-49.3-1.6-60.3-20.1c-11-18.7,5.3-40.2,26.3-35.2
	c3.3,0.7,6.6,2.4,9.9,4c5.5,2.7,11,5.5,17,4.3c5.7-1,9.2-5.1,13.7-10.4c6.3-7.3,9-15,10.2-19.5c-0.1-0.2-0.2-0.4-0.3-0.7
	c-0.1-0.2-0.2-0.5-0.3-0.7c-5.1-9.5-9.6-18.1-13.3-25.2c-2.4-4.6-4.5-8.7-6.3-12c-3.7-6.9-6.4-12.2-8.6-16.2
	c-6.3-11.9-7.3-13.9-10.1-19c-6.1-11.6-12.6-22.8-19.2-34.1c-7.3-12.2-14.7-25.8-8.6-40.2c4.9-11.6,17.5-17.5,29.5-13.8
	c12.6,3.8,18.2,15.9,23.5,27.1c0.9,2,1.9,4,2.8,6c8.4,16.7,16.7,33.5,24.9,50.2c0.7,1.7,1.8,3.9,3.2,6.7c1.2,2.5,2.6,5.3,4.1,8.5
	c0.8,1.6,1.5,3.2,2.2,4.5c0.9,1.8,1.6,3.3,2.1,4.5c3.8-9.6,7.7-19.1,11.6-28.6c3.9-9.5,7.8-19,11.6-28.6c0.1-0.5,1-2.6,2.4-5.6
	c1.2-2.6,2.7-5.9,4.3-9.7c0.5-1.3,1.1-2.6,1.7-4c5.1-12.4,11.2-27.4,24.8-31.4c9.8-3,20.8,1,26.5,9.3c2.9,4.1,4.1,8.9,4.3,13.6
	c0.2,10.5-4.9,21.7-9.2,31.3c-1.1,2.3-2.1,4.6-3,6.7c0,0.1-0.2,0.5-0.5,1.2c-1.2,2.7-4.5,10-10.1,22.1c-2,4.3-4,8.6-5.9,13
	C163.6,243.5,162.5,245.9,161.4,248.3z"/>
<g>
	<path class="st1" d="M764.6,249.6l14.3-7.4c0.3-0.2,0.8-0.4,1.4-0.8c3.9-2.2,6.8-5.7,8.1-9.9c1.3-4.1,0.9-8.5-1.2-12.2
		c0-0.1-0.1-0.2-0.1-0.2c-1-1.8-2.4-3.3-4-4.6c-2.3-1.6-4.8-2.7-7.6-3.3c-3.2-0.7-6.5-1.2-9.9-1.4l-18.2-1.2
		c-10.2-0.7-20.5-1.4-30.8-1.9c-6.7-0.4-12.4-0.8-17.2-0.9c-0.9,0-1.9,0-2.8,0c-5.9-0.1-9.9,0.3-13.1,1.2c-2.2,0.5-4.2,1.5-6,2.8
		c-1.9,1.4-3.4,3.2-4.5,5.2c-0.5,1-1,2.1-1.5,3.1c-0.4,1.1-0.7,2.2-1,3.3c-0.3,1.2-0.5,2.4-0.6,3.6c-0.8,9.5,0.2,18.9,2.7,28
		c2.3,8.2,5.4,18.7,12.1,24.5c1.7,1.5,3.6,2.7,5.8,3.4c4,1.3,7.6,0.6,11.2-0.1c5.5-1.1,10.3-3.8,15.2-6.3L764.6,249.6L764.6,249.6z"
		/>
	<path class="st1" d="M759.1,179.9l16.7,4.5c0.4,0.1,0.9,0.3,1.7,0.4c4.7,1.1,9.6,0.3,13.8-2.2c4.1-2.5,7.2-6.5,8.4-11.1
		c0-0.1,0.1-0.2,0.1-0.3c0.6-2.2,0.7-4.6,0.4-6.9c-0.5-3-1.7-5.9-3.3-8.5c-1.9-3.1-4.1-5.9-6.5-8.6l-13.1-14.7
		c-7.3-8.3-14.7-16.5-22.2-24.7c-4.9-5.3-8.9-9.9-12.6-13.7c-0.7-0.7-1.5-1.5-2.1-2.1c-4.5-4.5-7.9-7.2-11-8.9
		c-2.1-1.2-4.4-2-6.8-2.2c-2.5-0.2-5,0.1-7.4,0.9c-1.2,0.5-2.4,1-3.5,1.5c-1.1,0.6-2.2,1.3-3.3,2c-1.1,0.8-2.2,1.6-3.2,2.6
		c-7.8,7.3-14.4,15.9-19.4,25.4c-4.5,8.6-10.2,19.7-9.4,29.6c0.1,2.5,0.7,5,1.9,7.2c2.1,4.1,5.3,6.2,8.7,8.4
		c5.1,3.2,10.8,4.6,16.6,6.2L759.1,179.9L759.1,179.9z"/>
	<path class="st1" d="M965.5,50.3c-8.8-6.2-18.5-10.8-28.8-13.8c-1.3-0.4-2.7-0.6-4-0.8c-1.3-0.2-2.5-0.3-3.8-0.3
		c-1.3,0-2.6,0.1-3.8,0.3c-2.5,0.4-4.9,1.2-7,2.6c-2,1.3-3.7,3-5,5.1c-2,3-3.8,6.9-5.7,13c-0.2,0.9-0.6,1.9-0.9,2.8
		c-1.6,5-3.1,11-5,18c-2.9,10.7-5.7,21.4-8.5,32.2l-5,19.1c-0.9,3.5-1.5,7.1-1.8,10.7c-0.3,3,0,6.1,1,9c0.8,2.2,2,4.2,3.5,5.9
		c0.1,0.1,0.1,0.2,0.2,0.2c3.3,3.6,7.8,5.7,12.6,6c4.8,0.3,9.6-1.3,13.2-4.4c0.6-0.5,1-0.9,1.3-1.1l55.3-50.6
		c4.4-4,8.8-7.9,11.9-13.1c2-3.5,3.9-6.8,3.9-11.4c0-2.5-0.6-5-1.6-7.3C983.5,63.2,973.4,55.9,965.5,50.3z"/>
	<path class="st1" d="M852.5,147.8c4.7-5.5,4.7-13.8,5.1-20.5c1.4-22.5,2.9-45.1,4.1-67.6c0.5-8.5,1.4-17,0.9-25.6
		c-0.4-7.1-0.5-15.3-5.3-21.1c-8.5-10.3-26.6-9.4-39-7.8c-3.8,0.5-7.6,1.1-11.4,2c-3.8,0.8-7.5,1.8-11.1,2.8
		c-11.9,3.6-28.6,10.3-31.4,23c-1.6,7.2,2.2,14.6,5.1,21.1c3.6,8,8.4,15.1,12.8,22.6c11.7,19.8,23.6,39.4,35.5,59.1
		c3.5,5.9,7.4,13.3,14.3,16.4c0.5,0.2,0.9,0.3,1.4,0.5c3.1,1.1,6.4,1.3,9.6,0.6c0.2,0,0.4-0.1,0.6-0.1c3-0.7,5.6-2.2,7.7-4.3
		C851.8,148.6,852.1,148.2,852.5,147.8z"/>
	<path class="st1" d="M912.9,288.3c6.8,5.1,12.5,9.4,17.5,12.9c1,0.7,2,1.3,2.9,2c6.1,4.2,10.6,6.5,14.6,7.8c2.7,0.9,5.5,1.3,8.3,1
		c2.9-0.3,5.8-1.3,8.3-2.7c1.3-0.8,2.5-1.6,3.7-2.5c1.1-1,2.2-2,3.3-3c1.1-1.1,2.2-2.4,3.1-3.7c5.6-7.6,10.1-16,13.5-24.8
		c4-10.6,6.9-21.5,7.8-32.9c0.1-1.6,0.1-3.2,0-4.8c-0.1-1.5-0.3-3-0.5-4.4c-0.3-1.5-0.7-2.9-1.2-4.3c-1-2.8-2.5-5.3-4.5-7.5
		c-1.9-2-4.3-3.6-7-4.7c-3.9-1.6-8.8-2.8-16.2-3.6c-1-0.1-2.3-0.3-3.4-0.4c-6.1-0.7-13.3-1.1-21.7-1.6c-13-0.9-25.9-1.7-38.8-2.4
		c0,0-23-1.3-23-1.3c-1.4,0.2-2.9-0.1-4.3-0.1c-1.6,0-3.3,0.1-4.9,0.2c-3.8,0.3-8,0.9-11.4,2.6c-0.9,0.5-1.7,1-2.5,1.5
		c-1.2,0.9-2.4,1.9-3.4,3c-3,3.1-5.4,7-7.5,10.8c-0.5,1-1,2.2-1.6,3.1l-10.3,20.6c-5.9,11.6-11.7,23.1-17.3,34.9
		c-3.7,7.6-7,14-9.4,19.6c-0.5,1.1-0.9,2.2-1.4,3.2c-3,6.8-4.5,11.6-5,15.8c-0.4,2.8-0.2,5.6,0.6,8.4c0.8,2.8,2.3,5.4,4.2,7.7
		c1,1.1,2.1,2.2,3.2,3.2c1.1,1,2.3,1.8,3.6,2.7c1.3,0.9,2.7,1.7,4.2,2.4c10.3,4.9,21.2,7.9,32.4,9.7c9.3,1.5,18.8,1.7,28.2,0.7
		c1.6-0.2,3.2-0.5,4.7-0.9c1.4-0.4,2.9-0.8,4.3-1.3c1.4-0.6,2.7-1.2,4.1-1.9c2.6-1.5,4.8-3.5,6.5-5.8c1.6-2.3,2.8-4.9,3.3-7.7
		c0.9-4.1,1.1-9.2,0.6-16.6c-0.1-1-0.2-2.3-0.3-3.5c-0.5-6.1-1.4-13.2-2.4-21.6c-0.9-8.1,4.6-10.5,7.5-11.5
		C908.2,285.1,912.9,288.3,912.9,288.3z"/>
</g>
</svg>
